<?xml version="1.0" encoding="UTF-8"?>
<svg version="1.1" xmlns="http://www.w3.org/2000/svg" width="512" height="512">
<path d="M0 0 C1.22203125 -0.02835938 2.4440625 -0.05671875 3.703125 -0.0859375 C12.63446028 0.48074032 19.82773697 5.43659784 26.6875 10.75 C28.35520268 12.01076869 30.0231791 13.27117536 31.69140625 14.53125 C32.53203613 15.17191406 33.37266602 15.81257812 34.23876953 16.47265625 C37.39797717 18.86586507 40.59343205 21.2068894 43.79321289 23.54541016 C52.24979392 29.72736479 60.595323 36.04717663 68.91357422 42.41357422 C74.64860185 46.79545247 80.42742733 51.11027167 86.25 55.375 C94.93192948 61.73447438 103.49662154 68.24108758 112.04296875 74.78125 C116.25837955 78.00647522 120.49667892 81.19997527 124.75 84.375 C127.57749964 83.04058629 130.04610568 81.53730649 132.55859375 79.6796875 C133.29464844 79.13699219 134.03070313 78.59429687 134.7890625 78.03515625 C135.58054687 77.44605469 136.37203125 76.85695313 137.1875 76.25 C138.02152344 75.63253906 138.85554687 75.01507813 139.71484375 74.37890625 C146.82881246 69.09636103 153.87342138 63.72441831 160.90991211 58.33935547 C167.41241972 53.37075738 173.98110705 48.50063885 180.58374023 43.66625977 C186.5495925 39.28716925 192.43860599 34.81395878 198.3125 30.3125 C204.98217975 25.20744981 211.69211493 20.16955611 218.5 15.25 C219.2019751 14.74202881 219.9039502 14.23405762 220.62719727 13.71069336 C233.60304131 4.39132597 242.13935172 -1.17181169 258.75 0.375 C265.95115631 1.99888491 272.03163279 5.68669007 276.75 11.375 C281.58607611 19.41405463 283.90138924 25.8464426 283.89044189 35.16717529 C283.89489858 36.35214879 283.89489858 36.35214879 283.8994453 37.56106114 C283.90812416 40.21096554 283.90963986 42.86082471 283.91113281 45.51074219 C283.91576157 47.40965878 283.92078631 49.30857444 283.92617798 51.20748901 C283.93929866 56.36878137 283.94574633 61.53006072 283.95018864 66.69136715 C283.95311998 69.91634992 283.95722491 73.14132914 283.96169281 76.36631012 C283.97536705 86.45770271 283.98503399 96.54908717 283.9888947 106.64048839 C283.993375 118.28728382 284.01092196 129.93396187 284.0398953 141.58072162 C284.06151622 150.58467688 284.07159921 159.58859913 284.07293582 168.59258008 C284.07398358 173.96956981 284.0798852 179.34644918 284.09775543 184.72341156 C284.11424309 189.78281036 284.11638819 194.84201593 284.10761642 199.90143204 C284.10684642 201.75574639 284.11118396 203.61007115 284.12107468 205.46435928 C284.13381093 208.00143185 284.12790845 210.53782175 284.11749268 213.07489014 C284.12957728 214.16810928 284.12957728 214.16810928 284.14190602 215.28341365 C284.07584617 222.1926991 282.16830458 228.41929646 277.5 233.6875 C276.95859375 234.32300781 276.4171875 234.95851563 275.859375 235.61328125 C259.09133017 249.61770387 215.40912213 240.375 207.75 240.375 C207.42 200.775 207.09 161.175 206.75 120.375 C199.82 125.655 192.89 130.935 185.75 136.375 C176.25 143.375 176.25 143.375 171.5625 146.8125 C166.41260296 150.60716097 161.3309302 154.48875989 156.25 158.375 C154.50014356 159.70591793 152.75014399 161.03664771 151 162.3671875 C147.43848982 165.07685886 143.90194624 167.81584975 140.375 170.5703125 C138.66717923 171.88087653 136.95886586 173.19079896 135.25 174.5 C134.46689453 175.12261719 133.68378906 175.74523437 132.87695312 176.38671875 C127.5189625 180.44880135 127.5189625 180.44880135 124.2265625 180.1328125 C120.60473513 177.56211484 117.08819974 174.90621926 113.625 172.125 C107.31074942 167.13161715 100.93903748 162.2470569 94.4375 157.5 C84.87257306 150.50425115 75.45689831 143.32034598 66.04248047 136.12402344 C59.01937064 130.76581696 51.93903542 125.5100253 44.75 120.375 C44.42 160.305 44.09 200.235 43.75 241.375 C-16.83333333 241.375 -16.83333333 241.375 -24.5625 236.125 C-30.9302947 229.60911705 -32.39938756 223.4568019 -32.39717102 214.56504822 C-32.40268605 213.37712444 -32.40268605 213.37712444 -32.4083125 212.1652022 C-32.41933535 209.50848435 -32.42319084 206.85180564 -32.42700195 204.19506836 C-32.43326776 202.29116695 -32.43991467 200.38726677 -32.44691467 198.48336792 C-32.46794706 192.22720184 -32.47831768 185.97103555 -32.48828125 179.71484375 C-32.49232939 177.55933685 -32.49644633 175.40383008 -32.50063133 173.24832344 C-32.51968278 163.11901744 -32.53391278 152.98971871 -32.5422433 142.86039823 C-32.55200984 131.17850803 -32.57831443 119.49680761 -32.61874419 107.81498426 C-32.64893864 98.77956069 -32.66371542 89.7441914 -32.66702431 80.70871836 C-32.66937138 75.31538475 -32.678287 69.92225389 -32.70348549 64.52897453 C-32.72682879 59.45064867 -32.73097425 54.37265814 -32.72072411 49.29429245 C-32.72023012 47.43639445 -32.72650971 45.57847959 -32.74028015 43.72063255 C-32.82754287 31.24340372 -32.24071385 20.29614594 -24.01953125 10.16015625 C-17.22426238 3.304885 -9.62438195 0.10067345 0 0 Z " fill="#E53834" transform="translate(130.25,135.625)"/>
<path d="M0 0 C2.81047932 1.37485407 5.29057247 2.83360251 7.80859375 4.6953125 C8.5444873 5.23784668 9.28038086 5.78038086 10.03857422 6.33935547 C10.83021973 6.92861816 11.62186523 7.51788086 12.4375 8.125 C13.27297363 8.74391113 14.10844727 9.36282227 14.96923828 10.00048828 C24.71619026 17.24144332 34.3579711 24.62032712 44 32 C47.7068965 34.83521888 51.41557631 37.66808873 55.125 40.5 C55.95306152 41.13405762 56.78112305 41.76811523 57.63427734 42.42138672 C58.43816895 43.0351416 59.24206055 43.64889648 60.0703125 44.28125 C60.81577174 44.86163528 61.56123098 45.44202057 62.3292799 46.03999329 C64.96903636 48.04455139 64.96903636 48.04455139 67.8437624 49.6842804 C75.39024755 54.35313384 75.39024755 54.35313384 76.99539757 58.68844604 C77.3534917 61.90749439 77.36294192 64.96215465 77.2487793 68.19921875 C77.25038559 69.40007614 77.25199188 70.60093353 77.25364685 71.83818054 C77.24732315 75.11036801 77.19244004 78.37728613 77.11533332 81.64842987 C77.04625938 85.0741403 77.04008377 88.49997018 77.02705383 91.92626953 C76.9929519 98.40457071 76.90281405 104.880814 76.79220945 111.35821152 C76.66897562 118.73644119 76.60870834 126.11477264 76.55355966 133.49377632 C76.4387819 148.66366146 76.2454822 163.83162431 76 179 C68.18959851 179.07633893 60.37929399 179.12872116 52.56860352 179.16479492 C49.91380224 179.1781397 47.25949147 179.20028011 44.60473633 179.22631836 C40.77939748 179.26288673 36.95438858 179.27976928 33.12890625 179.29296875 C31.95042618 179.30845261 30.77194611 179.32393646 29.55775452 179.33988953 C21.57652661 179.34150355 14.23397927 178.69916688 7.6875 173.75 C1.72209368 167.6458633 -0.12684532 161.85463326 -0.12025452 153.44476318 C-0.12110894 152.78797711 -0.12196337 152.13119103 -0.12284368 151.45450234 C-0.12448959 149.25577321 -0.11899169 147.05712053 -0.11352539 144.85839844 C-0.1132433 143.28147381 -0.11340168 141.70454906 -0.1139679 140.12762451 C-0.11425502 135.84699467 -0.10837196 131.5663928 -0.10139394 127.28576946 C-0.09514631 122.81211679 -0.09455548 118.33846349 -0.09336853 113.86480713 C-0.09025938 105.39343477 -0.08205158 96.92207531 -0.07201904 88.45070863 C-0.060845 78.80630294 -0.0553442 69.16189664 -0.05032361 59.5174861 C-0.03986864 39.67831687 -0.02227723 19.83915924 0 0 Z " fill="#1E87E4" transform="translate(98,198)"/>
<path d="M0 0 C0.0701258 20.59283473 0.12300569 41.18564974 0.15543652 61.77857971 C0.17089591 71.3405456 0.19196772 80.90243724 0.22631836 90.46435547 C0.25624909 98.79992155 0.27558174 107.13543384 0.28226548 115.47105217 C0.28617152 119.88343846 0.29533192 124.2956709 0.31719017 128.70800781 C0.33761338 132.86449864 0.34382205 137.0207728 0.33932304 141.17730904 C0.34014564 142.69943991 0.34607653 144.22157834 0.35761642 145.7436657 C0.426579 155.31226868 0.44563425 163.75644546 -6.25 171.3125 C-6.79140625 171.94800781 -7.3328125 172.58351563 -7.890625 173.23828125 C-14.75439673 178.97080171 -22.04648791 178.3984228 -30.58984375 178.29296875 C-31.88950577 178.28872391 -33.18916779 178.28447906 -34.5282135 178.28010559 C-37.96259259 178.26871949 -41.39658351 178.2393075 -44.83081055 178.20599365 C-48.34353384 178.17515708 -51.85632063 178.16157141 -55.36914062 178.14648438 C-62.24625195 178.11443063 -69.12310727 178.06331115 -76 178 C-76.2574082 162.24894918 -76.45115128 146.49846959 -76.56993389 130.7458353 C-76.62656334 123.43083286 -76.70370731 116.11714004 -76.82983398 108.80297852 C-76.93976562 102.42491551 -77.01050676 96.04780108 -77.03497344 89.66881698 C-77.04926915 86.29317376 -77.08264424 82.92024303 -77.16303062 79.5454731 C-77.63442514 57.31563012 -77.63442514 57.31563012 -73.63833618 52.41957092 C-70.83718775 50.0917107 -68.27664864 48.55615981 -65 47 C-63.45574801 45.88191194 -61.93003275 44.73702791 -60.4375 43.55078125 C-58.96047813 42.46842121 -57.48126238 41.3890494 -56 40.3125 C-54.34113409 39.09767229 -52.68228026 37.88282807 -51.0234375 36.66796875 C-49.34898516 35.44527576 -47.67450635 34.22261902 -46 33 C-33.24935057 23.67134211 -20.62042074 14.19726315 -8.08032227 4.5871582 C-7.39381592 4.063396 -6.70730957 3.53963379 -6 3 C-5.29222412 2.43692139 -4.58444824 1.87384277 -3.85522461 1.29370117 C-2 0 -2 0 0 0 Z " fill="#4CAE4F" transform="translate(414,198)"/>
<path d="M0 0 C1.22203125 -0.02835938 2.4440625 -0.05671875 3.703125 -0.0859375 C12.98110142 0.51230438 20.31932163 5.80707924 27.4375 11.3125 C29.04530617 12.53030017 30.65337472 13.74775402 32.26171875 14.96484375 C32.95740967 15.49972412 33.65310059 16.03460449 34.36987305 16.58569336 C36.57689913 18.33607388 36.57689913 18.33607388 38.48574638 19.31694412 C41.26911889 20.94418719 43.36665354 22.18715707 44.38639164 25.34693241 C44.61274903 27.81109454 44.61620759 30.18962496 44.54467773 32.66333008 C44.54569992 33.59064941 44.54672211 34.51796875 44.54777527 35.47338867 C44.54290702 38.53161193 44.48850199 41.58683121 44.43359375 44.64453125 C44.42053484 46.76729196 44.41057206 48.8900738 44.40357971 51.01286316 C44.3768775 56.59474132 44.30813492 62.17534041 44.23065186 67.75671387 C44.15899021 73.45416968 44.12706187 79.15183259 44.09179688 84.84960938 C44.01676734 96.02530096 43.89732587 107.20004404 43.75 118.375 C36.07016836 114.0287184 36.07016836 114.0287184 32.69140625 111.34375 C31.98459717 110.78703613 31.27778809 110.23032227 30.54956055 109.65673828 C29.81133057 109.06876465 29.07310059 108.48079102 28.3125 107.875 C26.70661548 106.61085244 25.09982829 105.34785082 23.4921875 104.0859375 C22.69264648 103.4578418 21.89310547 102.82974609 21.06933594 102.18261719 C17.72545807 99.57650437 14.33728042 97.03252061 10.9375 94.5 C6.46342445 91.1657983 2.0052283 87.81321087 -2.42578125 84.421875 C-3.32901123 83.73077637 -4.23224121 83.03967773 -5.1628418 82.32763672 C-6.89881473 80.99780238 -8.63347921 79.66625715 -10.36645508 78.33251953 C-11.18654053 77.70458496 -12.00662598 77.07665039 -12.8515625 76.4296875 C-13.68864746 75.77266846 -14.52573242 75.11564941 -15.38818359 74.4387207 C-17.57309531 72.86313132 -19.63518399 71.56756477 -21.97509766 70.27026367 C-31.23886689 64.90601764 -31.23886689 64.90601764 -32.99603271 60.50756836 C-34.10027528 55.33006016 -33.71399126 50.18089392 -33.375 44.9375 C-33.33898007 43.39010338 -33.30899361 41.8425541 -33.28515625 40.29492188 C-32.97088335 28.44745791 -30.92218818 17.1237638 -22.25 8.375 C-15.32625648 2.79374176 -8.98518511 0.09398729 0 0 Z " fill="#C52828" transform="translate(130.25,135.625)"/>
<path d="M0 0 C7.55502298 4.86939542 11.89799053 12.15987858 14.52270508 20.70092773 C16.87176368 32.01606064 19.31133943 50.45254307 13.38867188 60.82080078 C9.17422621 65.28591609 4.00739045 68.00573718 -1.4609375 70.68310547 C-5.32479228 72.68710861 -8.60048351 75.30449192 -12 78 C-13.30549259 78.98848411 -14.61412985 79.97282793 -15.92578125 80.953125 C-16.58658691 81.44876953 -17.24739258 81.94441406 -17.92822266 82.45507812 C-22.44561439 85.82369171 -26.99839266 89.1445941 -31.54248047 92.47705078 C-38.90613166 97.89524721 -46.1702869 103.44115052 -53.41088867 109.02246094 C-54.25756104 109.6724707 -55.1042334 110.32248047 -55.9765625 110.9921875 C-57.10698975 111.86399658 -57.10698975 111.86399658 -58.26025391 112.75341797 C-60 114 -60 114 -61 114 C-61.37187784 101.82184391 -61.65557447 89.64505217 -61.82899475 77.46236038 C-61.91226426 71.80407485 -62.02503126 66.14969146 -62.20703125 60.49365234 C-62.38181152 55.02732295 -62.47672435 49.5647266 -62.51803589 44.09581757 C-62.54744213 42.0174048 -62.60487876 39.93918094 -62.69168091 37.86237335 C-63.32633576 22.03803779 -63.32633576 22.03803779 -59.43981934 16.96250916 C-55.67491204 13.33579572 -51.45971976 10.63167187 -46.90916443 8.0951004 C-44.31583223 6.60756004 -41.98664733 4.82734388 -39.625 3 C-27.69525762 -5.09164947 -12.96042068 -7.68449722 0 0 Z " fill="#FABF2D" transform="translate(399,140)"/>
</svg>
